<?xml version="1.0" standalone="no"?><!DOCTYPE svg PUBLIC "-//W3C//DTD SVG 1.1//EN" "http://www.w3.org/Graphics/SVG/1.1/DTD/svg11.dtd"><svg t="1782546402908" class="icon" viewBox="0 0 1024 1024" version="1.1" xmlns="http://www.w3.org/2000/svg" p-id="49079" xmlns:xlink="http://www.w3.org/1999/xlink" width="200" height="200"><path d="M149.12 768v32a42.88 42.88 0 0 0 42.88 42.88h640a42.88 42.88 0 0 0 42.88-42.88V768H960v32a128 128 0 0 1-128 128H192a128 128 0 0 1-128-128V768z m135.296-423.04v66.304H153.152v61.824h111.552v67.2H153.152v70.784h136.192v67.2H72.96V344.96z m152.32 0l82.88 159.488 32.704 73.92h2.24a1050.88 1050.88 0 0 1-10.752-123.2V344.96h76.16v333.44H538.432L456 517.568l-32.704-73.024h-2.24c3.584 37.184 10.304 82.88 10.304 123.2V678.4H355.2V344.96z m302.848 0l38.4 151.872c9.856 35.84 16.128 70.4 25.984 106.624h2.24c9.408-36.288 16.576-70.784 25.984-106.624l37.632-151.872h81.216l-100.352 333.44h-96l-99.776-333.44zM832 96a128 128 0 0 1 128 128V256h-85.12v-32a42.88 42.88 0 0 0-42.88-42.88H192a42.88 42.88 0 0 0-42.88 42.88V256H64v-32a128 128 0 0 1 128-128z" p-id="49080" fill="#7839ee"></path></svg>