<?xml version="1.0" standalone="no"?><!DOCTYPE svg PUBLIC "-//W3C//DTD SVG 1.1//EN" "http://www.w3.org/Graphics/SVG/1.1/DTD/svg11.dtd"><svg t="1777186039234" class="icon" viewBox="0 0 1024 1024" version="1.1" xmlns="http://www.w3.org/2000/svg" p-id="21748" xmlns:xlink="http://www.w3.org/1999/xlink" width="200" height="200"><path d="M877.714 533.943c0-21.943 14.629-36.572 36.572-36.572s36.571 14.629 36.571 36.572v351.086c0 58.514-43.886 102.4-102.4 102.4H175.543c-58.514 0-102.4-43.886-102.4-102.4V212.114c0-58.514 43.886-102.4 102.4-102.4h329.143c21.943 0 36.571 14.629 36.571 36.572s-14.628 36.571-36.571 36.571H175.543c-7.314 0-14.629 0-21.943 7.314-7.314 7.315-7.314 14.629-7.314 21.943V885.03c0 7.314 0 14.628 7.314 21.942 7.314 7.315 14.629 7.315 21.943 7.315h672.914c14.629 0 29.257-14.629 29.257-29.257V533.943z" fill="#606266" p-id="21749"></path><path d="M936.229 117.029l-73.143-73.143c-21.943-21.943-58.515-21.943-73.143 0L299.886 526.629l-14.629 14.628L256 680.23c0 14.628 0 29.257 7.314 36.571s21.943 14.629 36.572 7.314l131.657-36.571c7.314 0 14.628-7.314 14.628-7.314l482.743-482.743c29.257-21.943 29.257-58.515 7.315-80.457zM402.286 621.714l-65.829 14.629 14.629-65.829 460.8-460.8 51.2 51.2-460.8 460.8z" fill="#606266" p-id="21750"></path></svg>