<?xml version="1.0" standalone="no"?><!DOCTYPE svg PUBLIC "-//W3C//DTD SVG 1.1//EN" "http://www.w3.org/Graphics/SVG/1.1/DTD/svg11.dtd"><svg t="1775138213389" class="icon" viewBox="0 0 1024 1024" version="1.1" xmlns="http://www.w3.org/2000/svg" p-id="14528" xmlns:xlink="http://www.w3.org/1999/xlink" width="200" height="200"><path d="M204.8 0h614.4A204.8 204.8 0 0 1 1024 204.8v614.4a204.8 204.8 0 0 1-204.8 204.8H204.8A204.8 204.8 0 0 1 0 819.2V204.8A204.8 204.8 0 0 1 204.8 0z" fill="#FF8800" p-id="14529"></path><path d="M870.4 512A358.4 358.4 0 1 1 153.6 512a358.4 358.4 0 0 1 716.8 0zM512 256a256 256 0 1 0 0 512 256 256 0 0 0 0-512z m102.4 324.288a34.112 34.112 0 0 1-34.112 34.112H443.712a34.112 34.112 0 0 1-34.112-34.112V443.712c0-18.816 15.296-34.112 34.112-34.112h136.576c18.816 0 34.112 15.296 34.112 34.112v136.576z" fill="#FFFFFF" p-id="14530"></path></svg>