<?xml version="1.0" standalone="no"?><!DOCTYPE svg PUBLIC "-//W3C//DTD SVG 1.1//EN" "http://www.w3.org/Graphics/SVG/1.1/DTD/svg11.dtd"><svg t="1778951590723" class="icon" viewBox="0 0 1024 1024" version="1.1" xmlns="http://www.w3.org/2000/svg" p-id="37252" xmlns:xlink="http://www.w3.org/1999/xlink" width="200" height="200"><path d="M149.12 768v32c0 23.68 19.2 42.88 42.88 42.88h640c23.68 0 42.88-19.2 42.88-42.88V768H960v32a128 128 0 0 1-128 128H192a128 128 0 0 1-128-128V768h85.12z m135.296-423.04v66.304H153.152v61.824h111.552v67.2H153.152v70.784h136.192v67.2H72.96V344.96h211.456z m152.32 0l82.88 159.488 32.704 73.92h2.24c-4.48-35.392-10.752-83.328-10.752-123.2V344.96h76.16v333.312H538.432L456 517.44l-32.704-73.024h-2.24c3.584 37.184 10.304 82.88 10.304 123.2v110.656H355.2V344.96h81.536z m302.848 0l38.08 151.872c9.856 35.84 16.128 70.336 25.984 106.624h2.24c9.408-36.288 16.576-70.784 25.984-106.624l37.632-151.872h81.536l-100.352 333.312h-95.872L654.912 344.96h84.672zM832 96a128 128 0 0 1 128 128V256h-85.12v-32c0-23.68-19.2-42.88-42.88-42.88H192c-23.68 0-42.88 19.2-42.88 42.88V256H64v-32a128 128 0 0 1 128-128h640z" p-id="37253"></path></svg>