<?xml version="1.0" standalone="no"?><!DOCTYPE svg PUBLIC "-//W3C//DTD SVG 1.1//EN" "http://www.w3.org/Graphics/SVG/1.1/DTD/svg11.dtd"><svg t="1780930168855" class="icon" viewBox="0 0 1024 1024" version="1.1" xmlns="http://www.w3.org/2000/svg" p-id="48086" xmlns:xlink="http://www.w3.org/1999/xlink" width="200" height="200"><path d="M521.28 303.36m-207.36 0a207.36 207.36 0 1 0 414.72 0 207.36 207.36 0 1 0-414.72 0Z" fill="#06A8F5" p-id="48087"></path><path d="M943.68 944.64H98.56c-34.56 0-62.4-27.84-62.4-62.4v-17.92c0-31.68 18.56-60.48 47.68-73.28l212.8-145.92c3.84-2.56 8.32-4.48 12.8-5.12 56.32-7.04 367.04-7.04 423.04 0 4.48 0.64 8.96 2.24 12.8 5.12l212.8 145.92c28.8 12.8 47.68 41.6 47.68 73.28v17.92c0.32 34.56-27.52 62.4-62.08 62.4z" fill="#06A8F5" p-id="48088"></path></svg>