<?xml version="1.0" standalone="no"?><!DOCTYPE svg PUBLIC "-//W3C//DTD SVG 1.1//EN" "http://www.w3.org/Graphics/SVG/1.1/DTD/svg11.dtd"><svg t="1778951957424" class="icon" viewBox="0 0 1024 1024" version="1.1" xmlns="http://www.w3.org/2000/svg" p-id="38279" xmlns:xlink="http://www.w3.org/1999/xlink" width="200" height="200"><path d="M293.304 144H224c-53.016 0-96 42.984-96 96v624c0 53.016 42.984 96 96 96h576c53.016 0 96-42.984 96-96V240c0-53.016-42.984-96-96-96h-68v-56a24 24 0 0 0-24-24h-296c-53.72 0-99.704 33.088-118.696 80z m73.44 2.744Q348 165.488 348 192v32h320V128h-256q-26.512 0-45.256 18.744zM284 208v56a24 24 0 0 0 24 24h400a24 24 0 0 0 24-24v-56h68q32 0 32 32v624q0 32-32 32H224q-32 0-32-32V240q0-32 32-32h60z m270.56 396.8q0 17.232-12.184 29.416Q530.192 646.4 512.96 646.4q-16.744 0-28.816-11.6-12.032-11.56-12.744-28.2l-0.04-1.68V355.6q0-17.232 12.184-29.416 12.184-12.184 29.416-12.184 16.744 0 28.816 11.6 12.032 11.56 12.744 28.2l0.04 1.68V604.8z m21.36 149.52q0 26.08-18.44 44.52-18.44 18.44-44.52 18.44-26.08 0-44.52-18.44-18.44-18.44-18.44-44.52 0-26.08 18.44-44.52 18.44-18.44 44.52-18.44 26.08 0 44.52 18.44 18.44 18.44 18.44 44.52z" fill="#1D2129" p-id="38280"></path></svg>