<?xml version="1.0" standalone="no"?><!DOCTYPE svg PUBLIC "-//W3C//DTD SVG 1.1//EN" "http://www.w3.org/Graphics/SVG/1.1/DTD/svg11.dtd"><svg t="1777190347587" class="icon" viewBox="0 0 1024 1024" version="1.1" xmlns="http://www.w3.org/2000/svg" p-id="26950" xmlns:xlink="http://www.w3.org/1999/xlink" width="200" height="200"><path d="M540.69837806 1018.09194713h-57.31776975c-50.76190166 0-92.07176875-41.30986706-92.07176874-92.07176876v-21.87922217c-59.1081272-17.4559859-113.29277122-48.02370781-159.26283361-89.86015063l-17.16636925 9.89962399c-21.22100244 12.26921482-45.99639122 15.53398445-69.85027241 9.13608917-23.80122358-6.37156646-43.67945793-21.5896055-55.94867274-42.83693677l-28.64572046-49.65609259c-25.40727961-43.9427458-10.2945558-100.3653367 33.67451883-125.77261637l14.45450415-8.34622551a406.68761116 406.68761116 0 0 1-11.61099516-96.57399138c0-30.85733855 3.42274233-61.42506048 10.18924063-91.28190516l-13.00642085-7.50370435c-43.99540338-25.43360841-59.08179842-81.85619932-33.7008476-125.79894514l28.67204926-49.65609255c12.24288604-21.24733122 32.09479157-36.46537024 55.92234394-42.83693677 23.82755242-6.42422409 48.62926989-3.13312565 69.85027241 9.13608914l13.1380648 7.58269072c46.81258361-43.81110183 102.36632454-75.66893436 163.2648093-93.65149598v-15.79727232c0-50.76190166 41.30986706-92.07176875 92.07176875-92.07176878h57.3177697c50.76190166 0 92.09809756 41.30986706 92.09809752 92.07176878v18.64078132c59.13445601 18.82508278 112.89783941 50.73557292 158.02538065 93.78313992l18.35116464-10.58417245c44.04806094-25.38095085 100.4179943-10.24189819 125.79894515 33.6745188l28.64572043 49.68242139c12.29554362 21.22100244 15.53398445 46.02272 9.16241796 69.82394358-6.37156646 23.80122358-21.61593427 43.65312912-42.86326554 55.922344l-20.61544033 11.9006118c6.23992256 28.67204926 9.39937703 57.76535908 9.39937701 86.88499769 0 31.17328403-3.50172867 62.1359377-10.47885729 92.36138541l21.69492061 12.53250271c21.24733122 12.26921482 36.49169903 32.12112035 42.86326554 55.92234394 6.37156646 23.80122358 3.13312565 48.60294113-9.16241796 69.8502724l-28.64572043 49.62976386c-25.38095085 43.96907459-81.82987057 59.08179842-125.79894515 33.72717631l-22.37946906-12.92743449c-44.28502005 41.1255656-96.67930651 71.71961629-153.99707623 89.99179455v24.77538881c0.02632879 50.86721682-41.30986706 92.17708391-92.07176872 92.17708388zM245.47368742 715.70582643l21.35264639 22.53744184c46.78625485 49.41913354 106.23665625 82.90935081 171.95330903 96.78462159l31.17328404 6.6085256v84.35743415c0 7.29307406 6.13460741 13.42768145 13.42768143 13.42768145h57.31776975c7.29307406 0 13.45401025-6.13460741 13.4540102-13.42768145v-85.77918866l30.27810527-7.16143012c64.16325438-15.16538144 121.92861342-48.94521536 167.00349709-97.6798004l21.35264639-23.06401762 75.69526312 43.70578677c6.29258014 3.63337265 14.71779202 1.39542573 18.35116465-4.92348322l28.64572045-49.62976382c2.36959085-4.15994839 1.81668631-8.16192402 1.2901106-10.18924066-0.52657573-2.02731662-2.07997421-5.76600439-6.187265-8.16192399l-75.1686874-43.38984131 9.42570581-30.06747493c10.08392549-32.20010671 15.21803898-65.690324 15.21803901-99.54914432 0-31.88416127-4.68652411-63.76832256-13.92792846-94.80996266l-8.84647247-29.75152948 73.3256723-42.33668977c4.13361961-2.36959085 5.66068926-6.13460741 6.18726498-8.16192404 0.52657573-2.02731662 1.10580907-6.02929227-1.29011059-10.16291187l-28.64572044-49.6824214c-3.63337265-6.26625133-12.05858452-8.55685585-18.35116465-4.89715439l-72.45682236 41.83644285-21.29998881-23.69590848c-45.60145938-50.7092441-104.47262751-85.75285984-170.32092422-101.28684428l-30.27810527-7.16143012v-79.6445812c0-7.29307406-6.13460741-13.42768145-13.4540102-13.42768146h-57.31776975c-7.26674527 0-13.42768145 6.13460741-13.42768143 13.42768146v78.24915548l-31.17328404 6.58219682c-67.32270882 14.24387386-127.93157689 48.97154414-175.21807864 100.39166548l-21.32631762 23.19566151-66.63816037-38.49268685c-4.13361961-2.36959085-8.16192402-1.81668631-10.16291182-1.29011059-2.02731662 0.55290453-5.79233315 2.07997421-8.13559523 6.18726501l-28.69837804 49.68242138c-3.63337265 6.31890891-1.39542573 14.69146323 4.94981197 18.35116469l66.32221493 38.28205652-9.32039068 30.01481742c-9.87329518 31.83150368-14.87576479 65.00577552-14.87576474 98.60130797 0 34.83298545 5.55537408 69.53432693 16.53447833 103.07720179l9.89962399 30.33076283-68.58649059 39.57216713c-6.29258014 3.63337265-8.55685585 12.03225573-4.92348321 18.32483586l28.67204925 49.68242142c2.36959085 4.13361961 6.13460741 5.63436045 8.16192402 6.18726498 2.00098785 0.52657573 6.02929227 1.10580907 10.16291182-1.29011059l69.87660121-40.28304432z" fill="#2c2c2c" p-id="26951"></path><path d="M512.05265756 717.23289604c-112.50290759 0-204.02177183-91.5188642-204.02177181-204.02177182s91.5188642-204.02177183 204.02177181-204.02177184 204.02177183 91.5188642 204.02177185 204.02177184-91.5188642 204.02177183-204.02177185 204.02177182z m0-329.39945635c-69.13939514 0-125.37768452 56.23828939-125.37768454 125.37768453s56.23828939 125.37768452 125.37768454 125.37768452c69.13939514 0 125.37768452-56.23828939 125.37768452-125.37768452s-56.26461818-125.37768452-125.37768452-125.37768453z" fill="#2c2c2c" p-id="26952"></path></svg>