<?xml version="1.0" standalone="no"?><!DOCTYPE svg PUBLIC "-//W3C//DTD SVG 1.1//EN" "http://www.w3.org/Graphics/SVG/1.1/DTD/svg11.dtd"><svg t="1783606760542" class="icon" viewBox="0 0 1024 1024" version="1.1" xmlns="http://www.w3.org/2000/svg" p-id="52333" xmlns:xlink="http://www.w3.org/1999/xlink" width="200" height="200"><path d="M201.898667 304.469333a17.066667 17.066667 0 0 1 7.611733 7.645867l108.919467 217.838933a17.066667 17.066667 0 0 1-15.2576 24.712534l-61.610667 0.034133a281.7024 281.7024 0 0 0 455.7824 166.2976l43.1104 74.717867A365.329067 365.329067 0 0 1 518.485333 870.4c-185.275733 0-338.466133-137.3184-363.383466-315.733333H85.333333a17.066667 17.066667 0 0 1-15.2576-24.712534l108.885334-217.838933a17.066667 17.066667 0 0 1 22.9376-7.611733zM518.485333 136.533333c185.275733 0 338.500267 137.3184 363.383467 315.733334h69.802667a17.066667 17.066667 0 0 1 15.2576 24.712533l-108.885334 217.838933a17.066667 17.066667 0 0 1-30.549333 0l-108.919467-217.838933a17.066667 17.066667 0 0 1 15.2576-24.712533h61.610667a281.7024 281.7024 0 0 0-452.130133-169.301334L300.373333 208.452267A365.294933 365.294933 0 0 1 518.485333 136.533333z" fill="#296dff" p-id="52334"></path></svg>